<mxfile host="app.diagrams.net" modified="2024-07-22T19:44:16.735Z" agent="Mozilla/5.0 (Windows NT 10.0; Win64; x64) AppleWebKit/537.36 (KHTML, like Gecko) Chrome/126.0.0.0 Safari/537.36 Edg/126.0.0.0" etag="ZZ-V5_xRP5Kan6LZxEWj" version="24.7.1" type="device">
  <diagram name="Page-1" id="SyEQRn6-1cuLDk6Hes5v">
    <mxGraphModel dx="2276" dy="759" grid="1" gridSize="10" guides="1" tooltips="1" connect="1" arrows="1" fold="1" page="1" pageScale="1" pageWidth="850" pageHeight="1100" math="0" shadow="0">
      <root>
        <mxCell id="0" />
        <mxCell id="1" parent="0" />
        <mxCell id="gIb73Gg-TBpceioaAHjd-1" value="bucket_raw" style="sketch=0;points=[[0,0,0],[0.25,0,0],[0.5,0,0],[0.75,0,0],[1,0,0],[0,1,0],[0.25,1,0],[0.5,1,0],[0.75,1,0],[1,1,0],[0,0.25,0],[0,0.5,0],[0,0.75,0],[1,0.25,0],[1,0.5,0],[1,0.75,0]];outlineConnect=0;fontColor=#232F3E;fillColor=#7AA116;strokeColor=#ffffff;dashed=0;verticalLabelPosition=bottom;verticalAlign=top;align=center;html=1;fontSize=12;fontStyle=0;aspect=fixed;shape=mxgraph.aws4.resourceIcon;resIcon=mxgraph.aws4.s3;" vertex="1" parent="1">
          <mxGeometry x="140" y="290" width="78" height="78" as="geometry" />
        </mxCell>
        <mxCell id="gIb73Gg-TBpceioaAHjd-2" value="Perform transformations" style="outlineConnect=0;dashed=0;verticalLabelPosition=bottom;verticalAlign=top;align=center;html=1;shape=mxgraph.aws3.lambda_function;fillColor=#F58534;gradientColor=none;" vertex="1" parent="1">
          <mxGeometry x="300" y="293" width="69" height="72" as="geometry" />
        </mxCell>
        <mxCell id="gIb73Gg-TBpceioaAHjd-3" value="bucket_transformed" style="sketch=0;points=[[0,0,0],[0.25,0,0],[0.5,0,0],[0.75,0,0],[1,0,0],[0,1,0],[0.25,1,0],[0.5,1,0],[0.75,1,0],[1,1,0],[0,0.25,0],[0,0.5,0],[0,0.75,0],[1,0.25,0],[1,0.5,0],[1,0.75,0]];outlineConnect=0;fontColor=#232F3E;fillColor=#7AA116;strokeColor=#ffffff;dashed=0;verticalLabelPosition=bottom;verticalAlign=top;align=center;html=1;fontSize=12;fontStyle=0;aspect=fixed;shape=mxgraph.aws4.resourceIcon;resIcon=mxgraph.aws4.s3;" vertex="1" parent="1">
          <mxGeometry x="430" y="290" width="78" height="78" as="geometry" />
        </mxCell>
        <mxCell id="gIb73Gg-TBpceioaAHjd-4" value="" style="shape=mxgraph.signs.nature.snowflake;html=1;pointerEvents=1;fillColor=#000000;strokeColor=none;verticalLabelPosition=bottom;verticalAlign=top;align=center;" vertex="1" parent="1">
          <mxGeometry x="660" y="280" width="87" height="98" as="geometry" />
        </mxCell>
        <mxCell id="gIb73Gg-TBpceioaAHjd-5" value="Local Files (.csv)" style="sketch=0;pointerEvents=1;shadow=0;dashed=0;html=1;strokeColor=none;fillColor=#505050;labelPosition=center;verticalLabelPosition=bottom;verticalAlign=top;outlineConnect=0;align=center;shape=mxgraph.office.users.csv_file;" vertex="1" parent="1">
          <mxGeometry x="-110" y="310.5" width="59" height="43" as="geometry" />
        </mxCell>
        <mxCell id="gIb73Gg-TBpceioaAHjd-6" style="edgeStyle=orthogonalEdgeStyle;rounded=0;orthogonalLoop=1;jettySize=auto;html=1;entryX=0;entryY=0.5;entryDx=0;entryDy=0;entryPerimeter=0;" edge="1" parent="1" source="gIb73Gg-TBpceioaAHjd-5" target="gIb73Gg-TBpceioaAHjd-1">
          <mxGeometry relative="1" as="geometry" />
        </mxCell>
        <mxCell id="gIb73Gg-TBpceioaAHjd-8" value="Upload to S3&lt;div&gt;(manual or code)&lt;/div&gt;" style="edgeLabel;html=1;align=center;verticalAlign=middle;resizable=0;points=[];" vertex="1" connectable="0" parent="gIb73Gg-TBpceioaAHjd-6">
          <mxGeometry x="-0.2669" y="3" relative="1" as="geometry">
            <mxPoint as="offset" />
          </mxGeometry>
        </mxCell>
        <mxCell id="gIb73Gg-TBpceioaAHjd-9" style="edgeStyle=orthogonalEdgeStyle;rounded=0;orthogonalLoop=1;jettySize=auto;html=1;entryX=0;entryY=0.5;entryDx=0;entryDy=0;entryPerimeter=0;" edge="1" parent="1" source="gIb73Gg-TBpceioaAHjd-1" target="gIb73Gg-TBpceioaAHjd-2">
          <mxGeometry relative="1" as="geometry" />
        </mxCell>
        <mxCell id="gIb73Gg-TBpceioaAHjd-10" style="edgeStyle=orthogonalEdgeStyle;rounded=0;orthogonalLoop=1;jettySize=auto;html=1;entryX=0;entryY=0.5;entryDx=0;entryDy=0;entryPerimeter=0;" edge="1" parent="1" source="gIb73Gg-TBpceioaAHjd-2" target="gIb73Gg-TBpceioaAHjd-3">
          <mxGeometry relative="1" as="geometry" />
        </mxCell>
        <mxCell id="gIb73Gg-TBpceioaAHjd-11" style="edgeStyle=orthogonalEdgeStyle;rounded=0;orthogonalLoop=1;jettySize=auto;html=1;entryX=0;entryY=0.49;entryDx=0;entryDy=0;entryPerimeter=0;" edge="1" parent="1" source="gIb73Gg-TBpceioaAHjd-3" target="gIb73Gg-TBpceioaAHjd-4">
          <mxGeometry relative="1" as="geometry" />
        </mxCell>
        <mxCell id="gIb73Gg-TBpceioaAHjd-12" value="Snowpipe writes to&lt;div&gt;Data Warehouse&lt;/div&gt;" style="edgeLabel;html=1;align=center;verticalAlign=middle;resizable=0;points=[];" vertex="1" connectable="0" parent="gIb73Gg-TBpceioaAHjd-11">
          <mxGeometry x="0.0307" y="1" relative="1" as="geometry">
            <mxPoint as="offset" />
          </mxGeometry>
        </mxCell>
      </root>
    </mxGraphModel>
  </diagram>
</mxfile>
